PathFileType	4	(X/Y/Z)	Patient4_TMGait_0pt3_01_left_11.trc.trc
DataRate	CameraRate	NumFrames	NumMarkers	Units	OrigDataRate	OrigDataStartFrame	OrigNumFrames
50.541516245487	50.541516245487	4	33	mm	50.541516245487	36	       141
Frame#	Time	Sacral			L.Shoulder			Chest			R.Shoulder			Neck			R.ASIS			L.ASIS			R.Thigh.Superior			R.Thigh.Lateral			R.Thigh.Inferior			R.Patella			L.Thigh.Superior			L.Thigh.Lateral			L.Thigh.Inferior			L.Patella			L.Shank.Superior			L.Shank.Lateral			L.Shank.Inferior			R.Shank.Superior			R.Shank.Lateral			R.Shank.Inferior			R.Heel			R.Midfoot.Superior			R.Midfoot.Lateral			R.Toe			L.Heel			L.Midfoot.Lateral			L.Midfoot.Superior			L.Toe			L.Elbow			L.Wrist			R.Elbow			R.Wrist			
		X1	Y1	Z1	X2	Y2	Z2	X3	Y3	Z3	X4	Y4	Z4	X5	Y5	Z5	X6	Y6	Z6	X7	Y7	Z7	X8	Y8	Z8	X9	Y9	Z9	X10	Y10	Z10	X11	Y11	Z11	X12	Y12	Z12	X13	Y13	Z13	X14	Y14	Z14	X15	Y15	Z15	X16	Y16	Z16	X17	Y17	Z17	X18	Y18	Z18	X19	Y19	Z19	X20	Y20	Z20	X21	Y21	Z21	X22	Y22	Z22	X23	Y23	Z23	X24	Y24	Z24	X25	Y25	Z25	X26	Y26	Z26	X27	Y27	Z27	X28	Y28	Z28	X29	Y29	Z29	X30	Y30	Z30	X31	Y31	Z31	X32	Y32	Z32	X33	Y33	Z33	

36	20.942500000000	628.203606534469	996.396283821892	503.062561378519	767.204584037792	1415.428796414895	290.356083725669	901.265127111983	1351.795383999505	429.792142303964	852.500267059085	1432.538790862753	612.613072717869	785.452049441468	1482.444291074860	443.500819005531	865.216136233283	925.847265250751	597.930244849548	827.206188156016	950.394112485559	326.342534223314	855.114522105720	711.558517304427	573.701827334138	748.943024981921	619.173644873324	637.232235790636	808.353078359983	550.674504544439	558.480235677286	782.361741732408	458.848066112116	566.821242342506	907.026824731636	762.538274332543	363.632167675497	849.866515718128	633.280577524539	291.035420569987	949.242614824988	571.750182233443	353.542811312886	963.519131265328	499.396075887774	356.654364954784	938.601190670333	423.753538859992	345.578214658768	854.595870925818	308.278389598530	288.918468568664	910.421691969693	195.369878690612	352.524322885652	722.939943930188	383.876650224914	575.455068135351	619.782432138431	311.513101826616	638.436898600349	629.125976651833	206.530471143913	579.729756904308	452.508840703700	74.120893262095	548.258095364601	626.864329540678	100.963621130708	592.853783287192	529.412664205412	53.405214562432	626.220042731120	734.551670841874	36.088575979208	628.648769184703	787.193513964635	38.550848741938	386.144027261840	860.316419300993	35.503734838777	304.615074390972	944.484037774353	96.617546347091	331.919248521482	1071.948338504731	43.880263866470	300.652524982126	645.301231584461	1080.511870373466	208.678430469116	728.394939299261	832.029147924889	191.466772677423	1036.136074210228	1149.252733004226	710.968382729277	1247.581969842773	1246.466590983846	610.170176487473	
37	20.962285714286	629.748302020659	998.696491376443	497.629694134075	770.783538626751	1417.306973764620	285.421170189795	903.984085628808	1353.298625466362	425.494020631145	854.594838564413	1434.254973838827	608.027504595930	788.262966625251	1484.222151245399	438.684235288680	866.311231610058	927.354800268620	593.421353830685	829.226291628589	951.888537088347	321.690876654482	855.564654803089	713.124873383532	570.345154431307	749.055260543514	621.509960033276	634.346911095882	808.684555368018	552.221461508032	556.358662804791	782.432171951798	460.221662076212	565.503249916057	907.198130029989	762.530876033395	359.126730646068	848.064850800442	633.438221464543	287.846062509368	946.730640350970	571.110658624227	350.635028615279	960.325653540297	498.877660737624	354.353378592048	934.907479028753	423.396591547597	343.711703622766	850.322369939336	308.110526951996	287.787651852497	905.325271491032	195.250498337163	352.021427092682	722.014990434748	385.969252604978	574.431061672949	617.794846739340	315.165613151557	637.319874843451	626.597328790996	209.425551284676	579.669320722448	448.401243016322	79.735815013020	548.532299229346	623.251950518901	102.024772690343	593.338912722260	524.733964286751	56.654120558085	626.345449957457	728.917387035770	35.862864601520	628.621671783364	781.378039614936	38.589916411036	386.144180698585	854.507788684345	35.631061347098	304.660970809270	938.675358321387	96.689623246369	331.939202288163	1066.169535034686	43.760997948640	300.627606336383	650.734555170022	1082.432639450452	200.809980696819	741.184985617881	836.749625410155	181.910469552941	1036.691872844296	1149.955322124305	707.286677769843	1252.662134506251	1240.610383362510	608.980589660346	
38	20.982071428571	631.256542173329	1001.032949545977	492.158991612517	774.356007428111	1419.401205216575	280.659948719423	906.623311966699	1354.927067276635	421.381915311337	856.555152911679	1435.979987762609	603.659027001856	791.052270503220	1486.110459515018	434.103185840022	867.418891935380	928.984109298105	588.830909466963	831.180579497510	953.436340820721	316.950910254838	855.945685101677	714.850905033426	566.954335953209	749.057694116300	624.058949255967	631.467433630878	808.827515604929	553.952423522020	554.222223021498	782.312790369913	461.845747859974	564.170464836736	907.233654427903	762.498870137202	354.566630729938	846.031225182826	633.582455806484	284.655465810987	943.942624613037	570.441495713324	347.747797443009	956.797014452627	498.347920458518	352.058638799726	930.902738251028	423.084611435361	341.824592149145	845.763917251531	307.943495137008	286.689675893411	900.129069199251	195.175797202094	351.493728145299	721.013342557680	388.268723942391	573.439193861027	615.813509278381	318.931981521446	636.248103364584	624.185609952917	212.432897309190	579.678593709051	444.446061171329	85.459946117996	548.895633960169	619.758716846885	103.018601303443	593.838617371096	520.149692514161	59.935549686347	626.529399404852	723.295328364130	35.710559553464	628.581590920363	775.547268843700	38.662455571532	386.170159092890	848.672149479057	35.752062687867	304.732823561279	932.870880092699	96.739645582274	331.933429818351	1060.364263379854	43.551919207951	300.562096749348	656.019861563395	1084.836536995901	192.579303674500	753.277860379688	841.995923527902	172.216772186477	1036.737553136390	1150.350742979885	703.953933596114	1257.558797841553	1233.547775787002	608.881620386967	
39	21.001857142857	632.738138543484	1003.331550588119	486.657300892574	777.868772426692	1421.634563104696	276.068656192270	909.153527548389	1356.616025247406	417.433861892088	858.368693885140	1437.649611964186	599.493418867053	793.784971848385	1488.036815984094	429.750795217482	868.525624540256	930.675448202538	584.174799943467	833.092667318048	954.965199263286	312.142785983747	856.244348530205	716.659130202423	563.572586012212	748.916064444287	626.743309090945	628.604256569796	808.767367427148	555.784852532813	552.092258257796	781.992198788256	463.626588177340	562.845143357749	907.225551965491	762.455128250163	350.057672701758	843.971196659482	633.709187465743	281.505272773491	941.073983005040	569.762862674996	344.952949992073	953.143552932190	497.804242428978	349.837063594664	926.779804617694	422.795213416746	339.965916101780	841.083207262777	307.791095339639	285.633925579075	894.918367315674	195.126708388648	350.965304132471	719.912596990666	390.682695571769	572.493229525945	613.808823026116	322.732328687874	635.254122261265	621.842882589528	215.475125097828	579.782154361216	440.604701746790	91.185483527011	549.381338440509	616.327797965991	103.908949782913	594.352503638291	515.635108696244	63.170741984574	626.794433749708	717.691223294953	35.617668061538	628.535933390066	769.702015972962	38.776363197508	386.220446682870	842.813100112481	35.872327894529	304.831889483729	927.083759695773	96.759755114400	331.917262805465	1054.540449628775	43.234886461324	300.471928466089	661.162841104986	1087.606168527515	184.030868895492	764.669107622618	847.591766193740	162.453546512808	1036.210779092453	1150.322537922935	700.904004952879	1262.112850704334	1225.077924365719	609.900712393228	
